<?xml version="1.0" encoding="UTF-8" standalone="no"?>
<!DOCTYPE svg PUBLIC "-//W3C//DTD SVG 1.1//EN" "http://www.w3.org/Graphics/SVG/1.1/DTD/svg11.dtd">
<svg width="100%" height="100%" viewBox="0 0 2000 2000" version="1.1" xmlns="http://www.w3.org/2000/svg" xmlns:xlink="http://www.w3.org/1999/xlink" xml:space="preserve" xmlns:serif="http://www.serif.com/" style="fill-rule:evenodd;clip-rule:evenodd;stroke-linejoin:round;stroke-miterlimit:2;">
    <g transform="matrix(9.05081,7.93735,7.93735,-9.05081,-43887.2,8807.64)">
        <g transform="matrix(7.48124,5.61708,-5.61708,7.48124,11427.3,-23920.8)">
            <g transform="matrix(0,-0.267079,0.267079,0,605.929,2888.69)">
                <path d="M43.524,1279.77C55.504,1279.77 65.229,1289.49 65.229,1301.47C65.229,1313.45 55.504,1323.18 43.524,1323.18C31.545,1323.18 50.304,1313.45 50.304,1301.47C50.304,1289.49 31.545,1279.77 43.524,1279.77Z" style="fill:rgb(190,223,245);"/>
            </g>
            <g transform="matrix(0,0.267079,0.267079,0,600.073,2866.33)">
                <path d="M43.524,1279.77C55.504,1279.77 65.229,1289.49 65.229,1301.47C65.229,1313.45 55.504,1323.18 43.524,1323.18C31.545,1323.18 50.304,1313.45 50.304,1301.47C50.304,1289.49 31.545,1279.77 43.524,1279.77Z" style="fill:rgb(220,220,220);"/>
            </g>
        </g>
        <g transform="matrix(8.87439,2.96072,-2.96072,8.87439,2459.3,-25404.4)">
            <g transform="matrix(0,-0.267079,0.267079,0,605.929,2888.69)">
                <path d="M43.524,1279.77C55.504,1279.77 65.229,1289.49 65.229,1301.47C65.229,1313.45 55.504,1323.18 43.524,1323.18C31.545,1323.18 50.304,1313.45 50.304,1301.47C50.304,1289.49 31.545,1279.77 43.524,1279.77Z" style="fill:rgb(133,181,212);"/>
            </g>
            <g transform="matrix(0,0.267079,0.267079,0,600.073,2866.33)">
                <path d="M43.524,1279.77C55.504,1279.77 65.229,1289.49 65.229,1301.47C65.229,1313.45 55.504,1323.18 43.524,1323.18C31.545,1323.18 50.304,1313.45 50.304,1301.47C50.304,1289.49 31.545,1279.77 43.524,1279.77Z" style="fill:rgb(205,205,205);"/>
            </g>
        </g>
        <g transform="matrix(9.35524,0,0,9.35524,-6517.3,-23973.6)">
            <g transform="matrix(0,-0.267079,0.267079,0,605.929,2888.69)">
                <path d="M43.524,1279.77C55.504,1279.77 65.229,1289.49 65.229,1301.47C65.229,1313.45 55.504,1323.18 43.524,1323.18C31.545,1323.18 50.304,1313.45 50.304,1301.47C50.304,1289.49 31.545,1279.77 43.524,1279.77Z" style="fill:rgb(68,110,139);"/>
            </g>
            <g transform="matrix(0,0.267079,0.267079,0,600.073,2866.33)">
                <path d="M43.524,1279.77C55.504,1279.77 65.229,1289.49 65.229,1301.47C65.229,1313.45 55.504,1323.18 43.524,1323.18C31.545,1323.18 50.304,1313.45 50.304,1301.47C50.304,1289.49 31.545,1279.77 43.524,1279.77Z" style="fill:rgb(177,177,177);"/>
            </g>
        </g>
    </g>
</svg>
